HIERARCHY
ROOT Hips
{
	OFFSET 0.000000 0.000000 0.000000
	CHANNELS 6 Xposition Yposition Zposition Zrotation Yrotation Xrotation 
	JOINT LeftUpLeg_virtual
	{
		OFFSET 0.000000 0.000000 0.000000
		CHANNELS 3 Zrotation Yrotation Xrotation
		JOINT LeftUpLeg
		{
			OFFSET 10.205400 -3.823500 0.155100
			CHANNELS 3 Zrotation Yrotation Xrotation
			JOINT LeftLeg
			{
				OFFSET 0.708757 -12.982077 0.567790
				CHANNELS 3 Zrotation Yrotation Xrotation
				JOINT LeftFoot
				{
					OFFSET -0.708756 -10.717838 -2.184338
					CHANNELS 3 Zrotation Yrotation Xrotation
					JOINT LeftToeBase
					{
						OFFSET 0.108149 -7.191104 7.560241
						CHANNELS 3 Zrotation Yrotation Xrotation
						End Site
						{
							OFFSET 0.000000 0.000000 0.000000
						}
					}
				}
			}
		}
	}
	JOINT RightUpLeg_virtual
	{
		OFFSET 0.000000 0.000000 0.000000
		CHANNELS 3 Zrotation Yrotation Xrotation
		JOINT RightUpLeg
		{
			OFFSET -10.205400 -3.823500 0.005500
			CHANNELS 3 Zrotation Yrotation Xrotation
			JOINT RightLeg
			{
				OFFSET -0.708756 -12.982134 0.610632
				CHANNELS 3 Zrotation Yrotation Xrotation
				JOINT RightFoot
				{
					OFFSET 0.708754 -10.717769 -1.945823
					CHANNELS 3 Zrotation Yrotation Xrotation
					JOINT RightToeBase
					{
						OFFSET -0.108140 -7.191069 7.372968
						CHANNELS 3 Zrotation Yrotation Xrotation
						End Site
						{
							OFFSET 0.000000 0.000000 0.000000
						}
					}
				}
			}
		}
	}
	JOINT Spine_virtual
	{
		OFFSET 0.000000 0.000000 0.000000
		CHANNELS 3 Zrotation Yrotation Xrotation
		JOINT Spine
		{
			OFFSET 0.000000 6.876099 0.125700
			CHANNELS 3 Zrotation Yrotation Xrotation
			JOINT Spine1
			{
				OFFSET 0.000000 8.022060 0.146608
				CHANNELS 3 Zrotation Yrotation Xrotation
				JOINT Spine2
				{
					OFFSET 0.000000 9.168068 0.167552
					CHANNELS 3 Zrotation Yrotation Xrotation
					JOINT Neck_virtual
					{
						OFFSET 0.000000 0.000000 0.000000
						CHANNELS 3 Zrotation Yrotation Xrotation
						JOINT Neck
						{
							OFFSET 0.000000 10.314075 0.188496
							CHANNELS 3 Zrotation Yrotation Xrotation
							JOINT Head
							{
								OFFSET 0.000000 7.643700 -2.377400
								CHANNELS 3 Zrotation Yrotation Xrotation
								End Site
								{
									OFFSET 0.000000 0.000000 0.000000
								}
							}
						}
					}
					JOINT LeftShoulder_virtual
					{
						OFFSET 0.000000 0.000000 0.000000
						CHANNELS 3 Zrotation Yrotation Xrotation
						JOINT LeftShoulder
						{
							OFFSET 4.392200 8.824978 0.174984
							CHANNELS 3 Zrotation Yrotation Xrotation
							JOINT LeftArm
							{
								OFFSET 8.771219 -2.981674 -0.026999
								CHANNELS 3 Zrotation Yrotation Xrotation
								JOINT LeftForeArm
								{
									OFFSET 8.512804 0.000000 -0.000000
									CHANNELS 3 Zrotation Yrotation Xrotation
									JOINT LeftHand
									{
										OFFSET 18.484802 0.000000 -0.000000
										CHANNELS 3 Zrotation Yrotation Xrotation
										End Site
										{
											OFFSET 0.000000 0.000000 0.000000
										}
									}
								}
							}
						}
					}
					JOINT RightShoulder_virtual
					{
						OFFSET 0.000000 0.000000 0.000000
						CHANNELS 3 Zrotation Yrotation Xrotation
						JOINT RightShoulder
						{
							OFFSET -4.392200 8.824993 0.141379
							CHANNELS 3 Zrotation Yrotation Xrotation
							JOINT RightArm
							{
								OFFSET -8.771282 -2.981682 -0.094208
								CHANNELS 3 Zrotation Yrotation Xrotation
								JOINT RightForeArm
								{
									OFFSET -8.494598 0.000000 0.000000
									CHANNELS 3 Zrotation Yrotation Xrotation
									JOINT RightHand
									{
										OFFSET -18.483803 0.000000 0.000001
										CHANNELS 3 Zrotation Yrotation Xrotation
										End Site
										{
											OFFSET 0.000000 0.000000 0.000000
										}
									}
								}
							}
						}
					}
				}
			}
		}
	}
}
MOTION
Frames: 4
Frame Time: 0.033333
4.018753 22.857077 1.658241 179.382515 1.028970 179.271319 -5.165617 -7.508298 32.074374 -22.406840 16.952290 23.432465 26.860108 -2.494017 8.532307 -3.423691 -5.012168 21.493070 0.000000 0.000000 0.000000 0.115490 -5.518949 39.612891 31.587187 10.480930 2.664823 -19.761573 1.108149 -3.016573 18.461272 -1.482871 19.697058 0.000000 0.000000 0.000000 0.294717 -1.725355 -0.372269 -1.598387 3.414333 -41.182984 -1.643744 -3.492480 14.976831 -0.066596 0.168844 -0.000938 -2.657513 0.496569 19.619184 0.012463 -0.271778 13.549911 0.000000 0.000000 0.000000 -0.469202 1.404157 15.559518 -19.782733 -11.705463 0.241400 -41.969405 27.158605 21.594232 -5.129347 4.477915 0.280991 0.000000 0.000000 0.000000 -5.682829 3.434602 15.139027 28.874355 5.648603 10.453735 28.171807 -7.555001 26.151442 -7.893388 26.549179 -1.236598 0.000000 0.000000 0.000000 
3.998995 22.857363 1.599780 179.216077 1.202991 179.058477 -5.002595 -7.804920 31.807645 -22.121415 16.503054 23.198162 27.093492 -2.627754 8.166102 -3.066459 -4.783520 21.342888 0.000000 0.000000 0.000000 -0.245373 -5.485152 39.657110 31.421838 10.496741 2.666138 -19.862033 1.072707 -3.076540 18.405919 -1.565121 19.683757 0.000000 0.000000 0.000000 0.383012 -1.955821 -0.182390 -1.663026 3.494186 -41.185423 -1.670515 -3.266531 14.943499 0.019752 0.344720 -0.010931 -2.639988 0.441510 19.661155 -0.006292 -0.259735 13.651152 0.000000 0.000000 0.000000 -0.458727 1.266684 15.616678 -19.792532 -11.638578 0.250656 -41.940944 27.126096 21.478264 -5.105215 4.564115 0.225935 0.000000 0.000000 0.000000 -5.596755 3.455371 15.104665 28.701992 5.627290 10.441626 28.053083 -7.581261 26.337423 -7.859275 26.620807 -1.209595 0.000000 0.000000 0.000000 
3.980156 22.857450 1.512127 179.190341 1.052209 179.096494 -5.052163 -7.854605 31.922426 -22.135173 16.503448 23.111632 27.116155 -2.693736 8.159038 -3.112243 -4.763506 21.399068 0.000000 0.000000 0.000000 -0.275210 -5.650022 39.684096 31.337205 10.579919 2.699926 -19.822278 1.205729 -3.022303 18.376026 -1.589022 19.755824 0.000000 0.000000 0.000000 0.366241 -2.014752 -0.286199 -1.627245 3.680380 -41.105410 -1.590649 -3.300096 14.981241 0.047033 0.277878 -0.053590 -2.626528 0.418003 19.523580 -0.116881 -0.274544 13.492389 0.000000 0.000000 0.000000 -0.469603 1.351550 15.483077 -19.827872 -11.505714 0.315985 -41.953436 26.898477 21.405632 -4.988952 4.623423 0.146546 0.000000 0.000000 0.000000 -5.616164 3.316600 14.897539 28.497663 5.615365 10.452651 28.090705 -7.731609 26.207962 -7.900526 26.819574 -1.221438 0.000000 0.000000 0.000000 
3.963778 22.851297 1.432894 179.121288 0.853052 179.092806 -5.082241 -7.873656 32.042938 -22.154014 16.560451 22.990825 27.145994 -2.775758 8.172174 -3.193072 -4.726467 21.432852 0.000000 0.000000 0.000000 -0.372572 -5.684880 39.718025 31.310868 10.645500 2.718871 -19.706520 1.250970 -2.869304 18.279253 -1.606742 19.768673 0.000000 0.000000 0.000000 0.267381 -2.039592 -0.260481 -1.643690 3.877132 -41.172964 -1.445927 -3.558154 14.912103 -0.013102 0.428022 -0.031970 -2.603891 0.361897 19.592939 -0.306922 -0.315428 13.602552 0.000000 0.000000 0.000000 -0.429887 1.172857 15.541821 -19.936197 -11.477798 0.302084 -42.083541 26.563337 21.401365 -5.046039 4.883759 0.471230 0.000000 0.000000 0.000000 -5.634974 3.269275 15.032379 28.326120 5.859272 10.588489 28.161251 -8.084089 26.358291 -8.084461 27.134610 -1.317861 0.000000 0.000000 0.000000 
